# xmcd
# 
# Track frame offsets:
#     150
#     5307
#     9606
#     37659
#     39173
#     56128
#     80970
#     107919
#     128374
#     131826
#     163519
#     181925
#     201484
#     220708
# 
# Disc length: 3196
# 
# Revision: 1
# Processed by: cddbd v1.5.2PL0 Copyright (c) Steve Scherf et al.
# Submitted via: fre:ac v1.0.27
# 
DISCID=b50c7a0e
DTITLE=Kashmere Stage Band - Texas Thunder Soul - 1968-1974 [CD 2 - Live/Alternates]
DYEAR=2011
DGENRE=Jazz
TTITLE0=Intro
TTITLE1=Zero Point
TTITLE2=All Praises - Zero Point (Reprise)
TTITLE3=Intro
TTITLE4=Do You Dig It, Man?
TTITLE5=Don't Mean a Thing
TTITLE6=Thank You
TTITLE7=Ain't No Sunshine
TTITLE8=Do You Dig It, Man?
TTITLE9=All Praises
TTITLE10=Thank You [45 version]
TTITLE11=Zero Point [LP version]
TTITLE12=Do Your Thing [Instrumental]
TTITLE13=Getting It Out of My System
EXTD=
EXTT0=
EXTT1=
EXTT2=
EXTT3=
EXTT4=
EXTT5=
EXTT6=
EXTT7=
EXTT8=
EXTT9=
EXTT10=
EXTT11=
EXTT12=
EXTT13=
PLAYORDER=
